<svg width="91" height="91" viewBox="0 0 91 91" fill="none" xmlns="http://www.w3.org/2000/svg">
<path fill-rule="evenodd" clip-rule="evenodd" d="M12.6345 81.9029L5.33203 0H85.5745L78.2642 81.8895L45.4047 91L12.6345 81.9029Z" fill="#303030"/>
<path fill-rule="evenodd" clip-rule="evenodd" d="M45.5207 84.0319L72.0398 76.7365L78.2532 6.8208H45.5207V84.0319Z" fill="#303030"/>
<path fill-rule="evenodd" clip-rule="evenodd" d="M22.0473 36.9115L22.927 46.9419L45.5207 36.9115V26.865L22.0473 36.9115Z" fill="white"/>
<path fill-rule="evenodd" clip-rule="evenodd" d="M70.5439 16.1408L45.5207 26.865V36.9115L69.6811 26.1711L70.5439 16.1408Z" fill="white"/>
<path fill-rule="evenodd" clip-rule="evenodd" d="M45.5207 63.1557L45.4431 63.1673L34.2382 60.1582L33.5062 52.1576H23.4219L24.8292 67.9193L45.4408 73.6263L45.5207 73.6074V63.1557Z" fill="white"/>
<path fill-rule="evenodd" clip-rule="evenodd" d="M45.5207 36.9115V46.9419H57.7881L56.6732 60.0557L45.5207 63.1643V73.6153L66.0639 67.9082L68.7691 36.9115H45.5207Z" fill="white"/>
<path fill-rule="evenodd" clip-rule="evenodd" d="M45.5207 36.9115H22.0473L22.927 46.9419H45.5207V36.9115Z" fill="white"/>
<path fill-rule="evenodd" clip-rule="evenodd" d="M45.5207 26.1711V16.1408H45.4188H20.264L21.1541 26.1711H45.5207Z" fill="white"/>
<path fill-rule="evenodd" clip-rule="evenodd" d="M45.5207 16.1408V26.0453V26.1711H69.6811L70.5439 16.1408H45.5207Z" fill="white"/>
</svg>
