<svg width="57" height="57" viewBox="0 0 57 57" fill="none" xmlns="http://www.w3.org/2000/svg">
<g clip-path="url(#clip0_29_474)">
<path d="M45.125 9.5H11.875C9.98533 9.5 8.17306 10.2507 6.83686 11.5869C5.50067 12.9231 4.75 14.7353 4.75 16.625V40.375C4.75 42.2647 5.50067 44.0769 6.83686 45.4131C8.17306 46.7493 9.98533 47.5 11.875 47.5H45.125C47.0147 47.5 48.8269 46.7493 50.1631 45.4131C51.4993 44.0769 52.25 42.2647 52.25 40.375V16.625C52.25 14.7353 51.4993 12.9231 50.1631 11.5869C48.8269 10.2507 47.0147 9.5 45.125 9.5V9.5ZM45.125 14.25L29.6875 24.8663C29.3265 25.0747 28.9169 25.1844 28.5 25.1844C28.0831 25.1844 27.6735 25.0747 27.3125 24.8663L11.875 14.25H45.125Z" fill="#303030"/>
</g>
<defs>
<clipPath id="clip0_29_474">
<rect width="57" height="57" fill="white"/>
</clipPath>
</defs>
</svg>
