<svg width="103" height="103" viewBox="0 0 103 103" fill="none" xmlns="http://www.w3.org/2000/svg">
<path d="M34.4674 103C43.9434 103 51.6341 95.3093 51.6341 85.8334V68.6667H34.4674C24.9914 68.6667 17.3008 76.3574 17.3008 85.8334C17.3008 95.3093 24.9914 103 34.4674 103Z" fill="#303030"/>
<path d="M17.3008 51.5C17.3008 42.024 24.9914 34.3333 34.4674 34.3333H51.6341V68.6666H34.4674C24.9914 68.6666 17.3008 60.976 17.3008 51.5Z" fill="#303030"/>
<path d="M17.3008 17.1667C17.3008 7.69067 24.9914 0 34.4674 0H51.6341V34.3333H34.4674C24.9914 34.3333 17.3008 26.6427 17.3008 17.1667Z" fill="#303030"/>
<path d="M51.6341 0H68.8008C78.2768 0 85.9675 7.69067 85.9675 17.1667C85.9675 26.6427 78.2768 34.3333 68.8008 34.3333H51.6341V0Z" fill="#303030"/>
<path d="M85.9675 51.5C85.9675 60.976 78.2768 68.6666 68.8008 68.6666C59.3248 68.6666 51.6341 60.976 51.6341 51.5C51.6341 42.024 59.3248 34.3333 68.8008 34.3333C78.2768 34.3333 85.9675 42.024 85.9675 51.5Z" fill="#303030"/>
</svg>
