<svg width="82" height="82" viewBox="0 0 82 82" fill="none" xmlns="http://www.w3.org/2000/svg">
<path fill-rule="evenodd" clip-rule="evenodd" d="M41.0003 1.92188C18.8901 1.92188 0.960938 19.8477 0.960938 41.9613C0.960938 59.6517 12.4334 74.6602 28.3423 79.9545C30.3434 80.3252 31.078 79.086 31.078 78.0284C31.078 77.0737 31.0409 73.9196 31.0236 70.5739C19.8846 72.996 17.5342 65.8498 17.5342 65.8498C15.7128 61.2218 13.0885 59.9912 13.0885 59.9912C9.45575 57.5061 13.3624 57.5572 13.3624 57.5572C17.383 57.8397 19.5001 61.6833 19.5001 61.6833C23.0712 67.8044 28.8668 66.0348 31.1516 65.0117C31.511 62.4239 32.5486 60.6576 33.6937 59.6577C24.8004 58.6452 15.4516 55.212 15.4516 39.8701C15.4516 35.4987 17.0157 31.9269 19.577 29.1229C19.1613 28.1144 17.7908 24.0421 19.9649 18.5269C19.9649 18.5269 23.3271 17.4508 30.9785 22.6311C34.1724 21.744 37.5976 21.2991 41.0003 21.2838C44.403 21.2991 47.8309 21.744 51.0307 22.6311C58.6729 17.4508 62.0305 18.5269 62.0305 18.5269C64.2099 24.0421 62.8387 28.1144 62.423 29.1229C64.9903 31.9269 66.5438 35.4987 66.5438 39.8701C66.5438 55.2485 57.1771 58.6346 48.2612 59.6259C49.6974 60.8684 50.977 63.3051 50.977 67.0406C50.977 72.3979 50.9306 76.7096 50.9306 78.0284C50.9306 79.0939 51.6513 80.3424 53.6809 79.9492C69.5811 74.6489 81.0391 59.6458 81.0391 41.9613C81.0391 19.8477 63.1126 1.92188 41.0003 1.92188ZM15.957 58.9588C15.8688 59.1578 15.5559 59.2174 15.2708 59.0808C14.9803 58.9502 14.8172 58.679 14.9114 58.4795C14.9976 58.2746 15.3112 58.2176 15.6009 58.3548C15.892 58.4854 16.0578 58.7593 15.957 58.9588ZM17.9265 60.7162C17.7355 60.8932 17.3622 60.811 17.109 60.5312C16.8471 60.2521 16.798 59.8788 16.9916 59.6991C17.1885 59.5221 17.5505 59.6049 17.8131 59.8841C18.075 60.1665 18.1261 60.5372 17.9265 60.7162ZM19.2776 62.9647C19.0323 63.1351 18.6312 62.9753 18.3832 62.6192C18.1379 62.2632 18.1379 61.8362 18.3885 61.6651C18.6371 61.4941 19.0323 61.6479 19.2836 62.0013C19.5283 62.3633 19.5283 62.7903 19.2776 62.9647ZM21.5627 65.5687C21.3432 65.8107 20.8758 65.7457 20.5337 65.4156C20.1836 65.0927 20.0861 64.6345 20.3063 64.3925C20.5284 64.1498 20.9985 64.2181 21.3432 64.5457C21.6907 64.8679 21.7968 65.3294 21.5627 65.5687ZM24.516 66.4478C24.4192 66.7614 23.9689 66.904 23.5154 66.7707C23.0626 66.6335 22.7662 66.2661 22.8577 65.9492C22.9519 65.6336 23.404 65.4851 23.8609 65.6276C24.3131 65.7642 24.6101 66.1289 24.516 66.4478ZM27.8769 66.8207C27.8881 67.1509 27.5036 67.4247 27.0275 67.4307C26.5488 67.4413 26.1616 67.1741 26.1563 66.8492C26.1563 66.5157 26.5322 66.2445 27.0109 66.2366C27.487 66.2273 27.8769 66.4925 27.8769 66.8207ZM31.1786 66.6941C31.2356 67.0164 30.9048 67.3472 30.432 67.4354C29.9672 67.5203 29.5369 67.3214 29.4779 67.0018C29.4202 66.6716 29.757 66.3407 30.2212 66.2552C30.6946 66.173 31.1183 66.3666 31.1786 66.6941Z" fill="#161614"/>
</svg>
