<svg width="96" height="96" viewBox="0 0 96 96" fill="none" xmlns="http://www.w3.org/2000/svg">
<path fill-rule="evenodd" clip-rule="evenodd" d="M13.3285 86.4035L5.625 0H90.2729L82.5613 86.39L47.8972 96L13.3285 86.4035Z" fill="#303030"/>
<path fill-rule="evenodd" clip-rule="evenodd" d="M47.949 88.6545L75.9593 80.889L82.5494 7.06477H47.949V88.6545Z" fill="#303030"/>
<path d="M33.9263 39.1106H47.949V49.7075H24.2348L21.3766 17.6619H47.949V28.2591H32.9579L33.9263 39.1106Z" fill="white"/>
<path d="M47.9025 66.6446L47.949 66.6322V77.6576L47.9002 77.6711L26.193 71.6451L24.7083 55.0062H35.3461L36.1005 63.4578L47.9025 66.6446Z" fill="white"/>
<path d="M47.9123 17.6619H74.4581L73.5092 28.2591H47.9123V17.6619Z" fill="white"/>
<path d="M47.9123 49.7075V39.1106H72.545L72.2864 41.9562L69.6368 71.6451L47.9123 77.666V66.6411L59.7314 63.4511L60.9614 49.7075H47.9123Z" fill="white"/>
</svg>
