<svg width="87" height="87" viewBox="0 0 87 87" fill="none" xmlns="http://www.w3.org/2000/svg">
<g clip-path="url(#clip0_19_116)">
<path fill-rule="evenodd" clip-rule="evenodd" d="M0 0H87V87H0V0V0Z" fill="#303030"/>
<path fill-rule="evenodd" clip-rule="evenodd" d="M22.8755 72.7036L29.5334 68.6744C30.8178 70.9517 31.9862 72.8785 34.7889 72.8785C37.4754 72.8785 39.1691 71.8276 39.1691 67.74V39.9414H47.3449V67.8556C47.3449 76.3236 42.3812 80.178 35.1394 80.178C28.599 80.178 24.8025 76.7906 22.8754 72.7029" fill="white"/>
<path fill-rule="evenodd" clip-rule="evenodd" d="M51.7857 71.8275L58.4428 67.9731C60.1952 70.835 62.4728 72.9372 66.5021 72.9372C69.8897 72.9372 72.05 71.2435 72.05 68.9075C72.05 66.1043 69.8309 65.1114 66.0932 63.4767L64.0498 62.6001C58.1511 60.0894 54.2382 56.9358 54.2382 50.2781C54.2382 44.1461 58.9101 39.474 66.2103 39.474C71.408 39.474 75.1455 41.2845 77.8316 46.015L71.466 50.1027C70.0643 47.5918 68.5464 46.5991 66.2105 46.5991C63.816 46.5991 62.2975 48.1175 62.2975 50.1027C62.2975 52.5556 63.816 53.5486 67.3197 55.0671L69.3635 55.9431C76.3131 58.9216 80.226 61.9581 80.226 68.7906C80.226 76.1494 74.4445 80.1787 66.6775 80.1787C59.0856 80.1787 54.1799 76.5581 51.7859 71.8275" fill="white"/>
</g>
<defs>
<clipPath id="clip0_19_116">
<rect width="87" height="87" fill="white"/>
</clipPath>
</defs>
</svg>
