<svg width="97" height="97" viewBox="0 0 97 97" fill="none" xmlns="http://www.w3.org/2000/svg">
<path d="M87.9062 2.27344H9.09375C7.30555 2.25524 5.58316 2.94717 4.30452 4.19739C3.02588 5.44762 2.29542 7.15403 2.27344 8.94219V88.073C2.2994 89.8585 3.0316 91.561 4.30981 92.808C5.58802 94.0549 7.30814 94.7448 9.09375 94.7266H87.9062C89.6946 94.7407 91.4158 94.0465 92.6938 92.7955C93.9718 91.5445 94.7026 89.8384 94.7266 88.0502V8.91945C94.6947 7.13654 93.9604 5.43827 92.6832 4.19378C91.4061 2.94929 89.6894 2.25917 87.9062 2.27344V2.27344Z" fill="#303030"/>
<path d="M15.9595 36.9282H29.6835V81.0859H15.9595V36.9282ZM22.8253 14.9516C24.3994 14.9516 25.9381 15.4185 27.2468 16.2932C28.5555 17.1678 29.5754 18.411 30.1774 19.8654C30.7794 21.3198 30.9365 22.9201 30.6289 24.4638C30.3213 26.0075 29.5627 27.4253 28.4491 28.5378C27.3355 29.6503 25.917 30.4076 24.373 30.7137C22.829 31.0199 21.2289 30.8612 19.775 30.2578C18.3212 29.6544 17.079 28.6334 16.2056 27.3238C15.3322 26.0143 14.8668 24.4752 14.8683 22.9011C14.8703 20.7921 15.7095 18.7701 17.2015 17.2795C18.6935 15.7889 20.7163 14.9516 22.8253 14.9516ZM38.2923 36.9282H51.4479V42.9907H51.6298C53.4637 39.5199 57.9348 35.8597 64.6111 35.8597C78.5094 35.8294 81.0859 44.9762 81.0859 56.8359V81.0859H67.362V59.602C67.362 54.4867 67.271 47.9013 60.2309 47.9013C53.1909 47.9013 51.9935 53.4788 51.9935 59.2685V81.0859H38.2923V36.9282Z" fill="white"/>
</svg>
