<svg width="77" height="77" viewBox="0 0 77 77" fill="none" xmlns="http://www.w3.org/2000/svg">
<path fill-rule="evenodd" clip-rule="evenodd" d="M38.5682 75.9581C37.5339 75.9581 36.5685 75.6823 35.6721 75.1996L26.5013 69.7523C25.1223 68.9938 25.8118 68.718 26.2255 68.5801C28.0873 67.9595 28.432 67.8216 30.3627 66.7184C30.5696 66.5805 30.8454 66.6494 31.0522 66.7873L38.0855 70.9935C38.3613 71.1314 38.7061 71.1314 38.9129 70.9935L66.4253 55.0652C66.7012 54.9273 66.8391 54.6515 66.8391 54.3068V22.5192C66.8391 22.1745 66.7012 21.8987 66.4253 21.7607L38.9129 5.90147C38.6371 5.76356 38.2924 5.76356 38.0855 5.90147L10.5731 21.7607C10.2973 21.8987 10.1594 22.2434 10.1594 22.5192V54.3068C10.1594 54.5826 10.2973 54.9273 10.5731 55.0652L18.089 59.4093C22.1573 61.4779 24.7085 59.0645 24.7085 56.6512V25.2774C24.7085 24.8637 25.0533 24.4499 25.536 24.4499H29.0526C29.4663 24.4499 29.88 24.7947 29.88 25.2774V56.6512C29.88 62.0985 26.915 65.2703 21.7435 65.2703C20.1576 65.2703 18.9164 65.2703 15.3998 63.5465L8.15972 59.4093C6.36693 58.375 5.26367 56.4443 5.26367 54.3757V22.5882C5.26367 20.5196 6.36693 18.5889 8.15972 17.5546L35.6721 1.62635C37.396 0.661007 39.7404 0.661007 41.4642 1.62635L68.9766 17.5546C70.7694 18.5889 71.8727 20.5196 71.8727 22.5882V54.3757C71.8727 56.4443 70.7694 58.375 68.9766 59.4093L41.4642 75.3375C40.5678 75.7513 39.5335 75.9581 38.5682 75.9581ZM47.0494 54.0999C34.9826 54.0999 32.5003 48.5836 32.5003 43.8948C32.5003 43.4811 32.845 43.0673 33.3277 43.0673H36.9133C37.327 43.0673 37.6718 43.3432 37.6718 43.7569C38.2234 47.4114 39.8093 49.2042 47.1184 49.2042C52.9105 49.2042 55.3928 47.8941 55.3928 44.7912C55.3928 42.9984 54.7033 41.6883 45.6704 40.7919C38.1545 40.0334 33.4656 38.3785 33.4656 32.3796C33.4656 26.7943 38.1545 23.4846 46.0151 23.4846C54.8412 23.4846 59.1852 26.5185 59.7369 33.1381C59.7369 33.3449 59.6679 33.5518 59.53 33.7586C59.3921 33.8965 59.1852 34.0345 58.9784 34.0345H55.3928C55.048 34.0345 54.7033 33.7586 54.6343 33.4139C53.8069 29.6214 51.6693 28.3803 46.0151 28.3803C39.6714 28.3803 38.9129 30.5868 38.9129 32.2417C38.9129 34.2413 39.8093 34.8619 48.3596 35.9651C56.8408 37.0684 60.8401 38.6543 60.8401 44.5843C60.7712 50.6522 55.8065 54.0999 47.0494 54.0999Z" fill="#303030"/>
</svg>
