<svg width="81" height="81" viewBox="0 0 81 81" fill="none" xmlns="http://www.w3.org/2000/svg">
<path d="M66.5983 27.7879C65.758 27.4987 64.8873 27.2251 63.9908 26.9663C64.1381 26.3649 64.2734 25.7713 64.3936 25.1878C66.3674 15.6067 65.0769 7.88809 60.6701 5.34679C56.4445 2.91002 49.5338 5.45074 42.5544 11.5247C41.8833 12.1088 41.2102 12.7272 40.5375 13.3752C40.0892 12.9465 39.6417 12.5321 39.1953 12.1357C31.8807 5.64106 24.5489 2.90411 20.1464 5.45276C15.9248 7.89659 14.6747 15.1528 16.4514 24.2329C16.623 25.11 16.8235 26.0056 17.0503 26.9162C16.0127 27.2108 15.0109 27.5248 14.0524 27.8589C5.47678 30.8487 0 35.5345 0 40.395C0 45.4148 5.87933 50.4498 14.8115 53.5028C15.5164 53.7438 16.2478 53.9716 17.0016 54.1878C16.7569 55.1727 16.5441 56.1378 16.3655 57.0792C14.6714 66.0017 15.9943 73.0865 20.2047 75.5149C24.5535 78.0228 31.8522 75.445 38.9592 69.2326C39.5209 68.7415 40.0846 68.2208 40.6494 67.6749C41.3814 68.3798 42.1122 69.0469 42.8392 69.6726C49.7231 75.5965 56.5222 77.9886 60.7286 75.5534C65.0731 73.0384 66.4851 65.4276 64.652 56.1678C64.512 55.4606 64.3491 54.7382 64.1661 54.0028C64.6787 53.8513 65.1818 53.6949 65.6725 53.5322C74.9583 50.4556 81 45.4819 81 40.395C81 35.5169 75.3466 30.7996 66.5983 27.7879ZM64.5842 50.2477C64.1413 50.3943 63.6869 50.5361 63.2237 50.6735C62.1986 47.4281 60.8151 43.9772 59.122 40.4118C60.7377 36.9313 62.0677 33.5245 63.0641 30.3003C63.8927 30.54 64.697 30.7929 65.4719 31.0598C72.9675 33.6402 77.5397 37.4553 77.5397 40.395C77.5397 43.5262 72.6019 47.5911 64.5842 50.2477ZM61.2574 56.8399C62.068 60.9344 62.1838 64.6363 61.6469 67.5303C61.1644 70.1307 60.1943 71.8644 58.9947 72.5588C56.442 74.0364 50.9831 72.1158 45.0958 67.0496C44.4209 66.4688 43.7411 65.8487 43.0592 65.1924C45.3415 62.6963 47.6226 59.7944 49.8488 56.5715C53.7646 56.2241 57.4641 55.656 60.819 54.8805C60.9842 55.547 61.131 56.2007 61.2574 56.8399ZM27.6147 72.3035C25.1207 73.1843 23.1344 73.2095 21.9336 72.5171C19.3787 71.0435 18.3165 65.3551 19.7653 57.7245C19.9313 56.8507 20.1288 55.953 20.3565 55.0355C23.6746 55.7692 27.347 56.2972 31.2721 56.6154C33.5134 59.769 35.8603 62.6677 38.2254 65.2058C37.7087 65.7047 37.194 66.1796 36.6821 66.6271C33.5395 69.3742 30.3902 71.3232 27.6147 72.3035ZM15.9306 50.2285C11.981 48.8786 8.71922 47.1241 6.48344 45.2095C4.47445 43.489 3.46015 41.7809 3.46015 40.395C3.46015 37.4455 7.85746 33.6834 15.1914 31.1264C16.0813 30.8161 17.0128 30.5237 17.9795 30.2491C18.9931 33.5462 20.3227 36.9933 21.9273 40.4792C20.302 44.0167 18.9535 47.5188 17.9299 50.8546C17.2408 50.6565 16.5731 50.448 15.9306 50.2285ZM19.8472 23.5684C18.325 15.7888 19.336 9.92014 21.88 8.4475C24.5899 6.87869 30.5821 9.11548 36.8977 14.7233C37.3014 15.0817 37.7067 15.4569 38.1131 15.845C35.7597 18.3721 33.4342 21.249 31.2129 24.384C27.4034 24.7371 23.7568 25.3043 20.4041 26.0639C20.1933 25.2159 20.0066 24.3829 19.8472 23.5684ZM54.787 32.1959C53.9855 30.8115 53.1627 29.4598 52.3238 28.1451C54.9082 28.4718 57.3844 28.9055 59.7097 29.4362C59.0116 31.6736 58.1414 34.0129 57.1172 36.411C56.3825 35.0161 55.6053 33.6096 54.787 32.1959ZM40.5386 18.318C42.1347 20.0471 43.7331 21.9777 45.3052 24.0723C43.721 23.9975 42.1171 23.9586 40.5 23.9586C38.8982 23.9586 37.3061 23.9966 35.7317 24.0702C37.3054 21.995 38.9176 20.067 40.5386 18.318ZM26.199 32.2199C25.3984 33.6082 24.6357 35.007 23.9125 36.4084C22.9048 34.0186 22.0428 31.6687 21.3386 29.3996C23.6497 28.8824 26.1141 28.4595 28.6821 28.139C27.8314 29.4659 27.0018 30.8275 26.199 32.2196V32.2199ZM28.7561 52.8977C26.1029 52.6017 23.6014 52.2006 21.2909 51.6977C22.0063 49.3881 22.8874 46.988 23.9164 44.5467C24.6415 45.9471 25.4072 47.3465 26.2127 48.7379H26.2129C27.0334 50.1553 27.8835 51.5437 28.7561 52.8977ZM40.6344 62.7159C38.9943 60.9464 37.3585 58.989 35.7608 56.8835C37.3118 56.9444 38.893 56.9755 40.5 56.9755C42.151 56.9755 43.7831 56.9383 45.3895 56.8668C43.8122 59.0102 42.2196 60.9706 40.6344 62.7159ZM57.1502 44.4223C58.2329 46.8899 59.1455 49.2775 59.8701 51.5478C57.5216 52.0835 54.9859 52.5151 52.3143 52.8357C53.1552 51.5032 53.9852 50.1283 54.8008 48.7141C55.626 47.2832 56.4094 45.8502 57.1502 44.4223ZM51.8035 46.9854C50.5373 49.1808 49.2374 51.2766 47.9177 53.2548C45.5141 53.4267 43.0309 53.5152 40.5 53.5152C37.9793 53.5152 35.5274 53.4369 33.1663 53.2837C31.7935 51.2794 30.4653 49.1775 29.2072 47.0043H29.2075C27.9527 44.837 26.7978 42.6514 25.7514 40.478C26.7975 38.2996 27.9494 36.1115 29.1969 33.9481L29.1967 33.9486C30.4476 31.7794 31.7641 29.6876 33.1242 27.696C35.5332 27.5139 38.0034 27.4188 40.4999 27.4188H40.5C43.0077 27.4188 45.4811 27.5146 47.8893 27.6983C49.2287 29.6754 50.5363 31.7604 51.7921 33.9298C53.0622 36.1237 54.2289 38.2971 55.284 40.4288C54.232 42.5971 53.0679 44.7926 51.8035 46.9854ZM58.9416 8.34456C61.6541 9.90875 62.7089 16.2172 61.0047 24.4894C60.896 25.0173 60.7736 25.5549 60.6406 26.0998C57.2801 25.3244 53.6309 24.7474 49.8104 24.3889C47.5847 21.2194 45.2782 18.338 42.9632 15.8434C43.5856 15.2447 44.2071 14.6737 44.8261 14.1349C50.8061 8.93079 56.3952 6.87609 58.9416 8.34456ZM40.5 33.1619C44.4946 33.1619 47.733 36.4002 47.733 40.395C47.733 44.3896 44.4946 47.628 40.5 47.628C36.5054 47.628 33.267 44.3896 33.267 40.395C33.267 36.4002 36.5054 33.1619 40.5 33.1619Z" fill="#303030"/>
</svg>
