<svg width="93" height="93" viewBox="0 0 93 93" fill="none" xmlns="http://www.w3.org/2000/svg">
<path d="M84.2449 2.02057C80.2459 -1.54395 75.4099 -0.110438 70.6306 4.12905C69.8947 4.79029 69.1873 5.48261 68.5105 6.20412C60.3395 14.872 52.7557 30.9218 50.4002 43.1825C51.3171 45.0447 52.0349 47.4198 52.5086 49.2333C52.7448 50.1328 52.9569 51.041 53.1444 51.955C53.1444 51.955 53.071 51.6797 52.7702 50.8085L52.5769 50.244C52.5373 50.1396 52.4946 50.0364 52.4491 49.9345C51.9158 48.6942 50.443 46.0771 49.7928 44.9393C49.2775 46.4484 48.7911 47.9672 48.3338 49.4949C50.2098 52.9199 51.3483 58.7949 51.3483 58.7949C51.3483 58.7949 51.2517 58.412 50.7802 57.0838C50.366 55.909 48.283 52.2616 47.7889 51.4101C46.9461 54.5271 46.6119 56.6268 46.9119 57.1376C47.5026 58.1279 48.0585 59.8426 48.5467 61.7324C49.6569 65.9958 50.4256 71.1893 50.4256 71.1893L50.4939 72.0554C50.3464 75.6054 50.4198 79.1619 50.7097 82.7039C51.0788 87.1454 51.7683 90.9569 52.6481 93.0007L53.2468 92.6738C51.9528 88.6523 51.4275 83.3796 51.66 77.3033C52.0066 68.0106 54.1463 56.8034 58.0945 45.1239C64.7723 27.4968 74.0338 13.3491 82.5084 6.59137C74.785 13.5671 64.3276 36.1588 61.1969 44.5201C57.6919 53.8833 55.2115 62.6675 53.7147 71.0869C56.2977 63.1942 64.6444 59.8055 64.6444 59.8055C64.6444 59.8055 68.7401 54.753 73.5252 47.539C70.6589 48.1914 65.9501 49.3125 64.372 49.9737C62.047 50.9473 61.4199 51.2793 61.4199 51.2793C61.4199 51.2793 68.9551 46.6933 75.4208 44.6153C84.3096 30.6144 93.9961 10.7248 84.2449 2.02057M12.276 4.1276C8.35399 4.14213 5.17746 7.31721 5.16656 11.2399V75.5945C5.17819 79.5165 8.35617 82.6894 12.276 82.7039H48.769C48.4963 79.2142 48.4291 75.7114 48.5678 72.2138C48.5452 71.9726 48.5249 71.6659 48.5053 71.4385C48.0334 68.3406 47.4218 65.2655 46.6722 62.2228C46.2035 60.4013 45.6078 58.7433 45.2445 58.1279C44.7933 57.3643 44.8638 56.9269 44.8667 56.4532C44.8667 55.9882 44.9262 55.505 45.012 54.9572C45.2416 53.5927 45.5424 52.2413 45.9173 50.9073L46.7572 50.7998C46.6918 50.6632 46.7034 50.547 46.638 50.4249L46.4789 48.9492C46.9439 47.3966 47.4351 45.8526 47.9611 44.3203L48.7356 44.2462C48.7044 44.1866 48.6956 44.0987 48.6644 44.0428L48.4973 42.8185C50.9407 30.1066 58.5239 13.9747 67.098 4.87814C67.3538 4.60931 67.6146 4.3819 67.8645 4.12615L12.276 4.1276Z" fill="black"/>
</svg>
