<svg width="91" height="91" viewBox="0 0 91 91" fill="none" xmlns="http://www.w3.org/2000/svg">
<path d="M2.59917 32.0228C2.59917 32.0228 0.447161 30.4651 3.03284 28.3877L9.05306 22.9889C9.05306 22.9889 10.7778 21.1696 12.5999 22.7557L68.1775 64.9342V85.1604C68.1775 85.1604 68.1497 88.3368 64.0846 87.987L2.59917 32.0228Z" fill="black"/>
<path d="M16.9267 45.0585L2.59919 58.1134C2.59919 58.1134 1.12755 59.2104 2.59919 61.174L9.25072 67.2362C9.25072 67.2362 10.8304 68.9389 13.1666 67.003L28.3515 55.4588L16.9267 45.0585ZM42.0761 45.1666L68.3474 25.0577L68.1775 4.9403C68.1775 4.9403 67.0556 0.549554 63.3125 2.83664L28.3515 34.73L42.0761 45.1666Z" fill="black"/>
<path d="M64.0839 88.0119C65.6089 89.5781 67.4587 89.0641 67.4587 89.0641L87.9316 78.9532C90.5528 77.1616 90.186 74.9399 90.186 74.9399V14.5493C90.186 11.894 87.4759 10.9776 87.4759 10.9776L69.7302 2.40297C65.8535 0.000711575 63.3126 2.83664 63.3126 2.83664C63.3126 2.83664 66.5779 0.478462 68.1775 4.94102V84.7914C68.1775 85.3409 68.0609 85.8791 67.8277 86.3654C67.3613 87.3124 66.3447 88.1925 63.9147 87.8235L64.0839 88.0119Z" fill="black"/>
</svg>
