<svg width="109" height="109" viewBox="0 0 109 109" fill="none" xmlns="http://www.w3.org/2000/svg">
<g clip-path="url(#clip0_19_114)">
<path d="M7.71685 54.2873C7.71685 72.7216 18.4299 88.6524 33.9646 96.2018L11.749 35.3337C9.16486 41.1258 7.71685 47.5355 7.71685 54.2873ZM85.7289 51.9372C85.7289 46.1814 83.6615 42.1954 81.8882 39.0929C79.5275 35.2566 77.3147 32.0079 77.3147 28.1716C77.3147 23.8905 80.5616 19.9053 85.1352 19.9053C85.3417 19.9053 85.5375 19.931 85.7387 19.9426C77.4529 12.3516 66.4138 7.71685 54.2891 7.71685C38.0188 7.71685 23.7044 16.0647 15.377 28.7086C16.4696 28.7414 17.4994 28.7645 18.374 28.7645C23.2454 28.7645 30.7859 28.1734 30.7859 28.1734C33.2964 28.0254 33.5924 31.7128 31.0845 32.0097C31.0845 32.0097 28.5615 32.3065 25.7541 32.4536L42.7138 82.8994L52.9058 52.3324L45.6497 32.4519C43.1418 32.3048 40.766 32.0079 40.766 32.0079C38.2563 31.8608 38.5506 28.0236 41.0602 28.1716C41.0602 28.1716 48.7514 28.7627 53.3276 28.7627C58.198 28.7627 65.7394 28.1716 65.7394 28.1716C68.2517 28.0236 68.5468 31.711 66.0381 32.0079C66.0381 32.0079 63.5098 32.3048 60.7077 32.4519L77.538 82.5157L82.1833 66.9925C84.1967 60.5508 85.7289 55.9241 85.7289 51.9372ZM55.1061 58.3611L41.1329 98.9649C45.305 100.191 49.7173 100.862 54.2891 100.862C59.7125 100.862 64.9135 99.9246 69.7547 98.2223C69.6297 98.0229 69.5163 97.8111 69.4233 97.5807L55.1061 58.3611ZM95.1543 31.9432C95.3546 33.4267 95.468 35.0191 95.468 36.7321C95.468 41.4581 94.5854 46.7707 91.9269 53.4135L77.7011 94.5438C91.5467 86.4698 100.86 71.4694 100.86 54.2882C100.86 46.1912 98.7921 38.5771 95.1543 31.9432ZM54.2891 0C24.3549 0 0 24.3531 0 54.2873C0 84.2251 24.3549 108.577 54.2891 108.577C84.2224 108.577 108.581 84.2251 108.581 54.2873C108.58 24.3531 84.2224 0 54.2891 0ZM54.2891 106.089C25.7275 106.089 2.48928 82.8506 2.48928 54.2873C2.48928 25.7258 25.7267 2.48928 54.2891 2.48928C82.8497 2.48928 106.086 25.7258 106.086 54.2873C106.086 82.8506 82.8497 106.089 54.2891 106.089Z" fill="#303030"/>
</g>
<defs>
<clipPath id="clip0_19_114">
<rect width="109" height="109" fill="white"/>
</clipPath>
</defs>
</svg>
